<svg width="24" height="24" viewBox="0 0 24 24" fill="none" xmlns="http://www.w3.org/2000/svg">
<path d="M11.9531 0C9.58902 0 7.27801 0.701038 5.31233 2.01446C3.34665 3.32789 1.81459 5.19471 0.909883 7.37886C0.0051789 9.56301 -0.231533 11.9664 0.229681 14.2851C0.690895 16.6037 1.82932 18.7336 3.50099 20.4053C5.17267 22.0769 7.30251 23.2154 9.62119 23.6766C11.9399 24.1378 14.3432 23.9011 16.5274 22.9964C18.7115 22.0917 20.5784 20.5596 21.8918 18.5939C23.2052 16.6282 23.9063 14.3172 23.9063 11.9531C23.9025 8.7841 22.642 5.74594 20.4012 3.5051C18.1603 1.26426 15.1222 0.0037217 11.9531 0ZM11.9531 22.5C9.86716 22.5 7.82802 21.8814 6.0936 20.7225C4.35918 19.5636 3.00736 17.9164 2.20909 15.9892C1.41082 14.062 1.20196 11.9414 1.60891 9.89553C2.01586 7.84964 3.02036 5.97036 4.49536 4.49536C5.97037 3.02035 7.84964 2.01586 9.89554 1.60891C11.9414 1.20195 14.0621 1.41081 15.9892 2.20908C17.9164 3.00735 19.5636 4.35917 20.7225 6.0936C21.8814 7.82802 22.5 9.86715 22.5 11.9531C22.4969 14.7494 21.3847 17.4302 19.4075 19.4075C17.4302 21.3847 14.7494 22.4969 11.9531 22.5ZM7.96875 11.9531C7.96875 12.7894 8.23187 13.6044 8.72084 14.2828C9.2098 14.9612 9.89982 15.4686 10.6932 15.733C11.4865 15.9975 12.3429 16.0056 13.1411 15.7563C13.9394 15.5069 14.6389 15.0127 15.1406 14.3437C15.2527 14.1946 15.4194 14.096 15.6041 14.0697C15.7888 14.0435 15.9764 14.0917 16.1256 14.2037C16.2748 14.3158 16.3733 14.4825 16.3996 14.6672C16.4259 14.8519 16.3777 15.0395 16.2656 15.1887C15.5866 16.0935 14.6402 16.7618 13.5603 17.0989C12.4804 17.436 11.3218 17.4248 10.2486 17.0669C9.17548 16.709 8.2421 16.0226 7.58069 15.1048C6.91929 14.187 6.56338 13.0844 6.56338 11.9531C6.56338 10.8219 6.91929 9.71925 7.58069 8.80147C8.2421 7.88369 9.17548 7.19725 10.2486 6.83936C11.3218 6.48147 12.4804 6.47028 13.5603 6.80737C14.6402 7.14446 15.5866 7.81274 16.2656 8.71758C16.3777 8.86676 16.4259 9.05435 16.3996 9.23906C16.3733 9.42378 16.2748 9.5905 16.1256 9.70254C15.9764 9.81458 15.7888 9.86277 15.6041 9.83651C15.4194 9.81025 15.2527 9.71168 15.1406 9.5625C14.6389 8.8935 13.9394 8.39933 13.1411 8.14998C12.3429 7.90064 11.4865 7.90877 10.6932 8.17321C9.89982 8.43766 9.2098 8.94502 8.72084 9.62342C8.23187 10.3018 7.96875 11.1169 7.96875 11.9531Z" fill="white" fill-opacity="0.8"/>
</svg>
